<svg width="224" height="66" viewBox="0 0 224 66" fill="none" xmlns="http://www.w3.org/2000/svg">
<g clip-path="url(#clip0_151_94)">
<path d="M37.7 16.2C37.7 16.3 37.8 16.4 37.7 16.5C37.7 16.7 37.7 16.8 37.9 17C40.9 20.7 43.6 24.7 46.1 28.8C46.3 29.1 46.5 29.3 46.8 29.3L47.3 29.4C47.1 29.6 47.1 29.9 47.3 30.1C54.3 38.5 63.1 42.8 73.8 43.1C74.1 43.1 74.3 43.3 74.3 43.6V58.7C74.3 59.1 74.1 59.3 73.7 59.3C61.9 59 51.6 55.2 42.6 48C40.7 46.5 39 44.9 37.4 43.3L27.7 29.8C20.8 21.5 11.8 17 1 16.6C0.6 16.6 0.5 16.4 0.5 16V0.800022C0.5 0.600022 0.7 0.400024 0.9 0.400024C15.2 0.800024 27.3 6.00002 37.1 16.2C37.2 16.3 37.3 16.3 37.4 16.3C37.5 16.3 37.6 16.3 37.7 16.2Z" fill="white"/>
<path d="M51.9998 24.6C48.5998 20.6 44.6998 16.9 40.2998 13.5C49.8998 5.00002 60.9998 0.600024 73.6998 0.400024C74.0998 0.400024 74.2998 0.600023 74.2998 1.00002V16C74.2998 16.4 74.0998 16.6 73.7998 16.6C65.4998 16.9 58.2998 19.6 51.9998 24.6Z" fill="white"/>
<path d="M113.3 29.3C114 30 115.4 31.3 116 32.3C120.4 40 115.5 49.1 106.6 49.3C105.1 49.3 99.0002 49.4 88.2002 49.4C87.9002 49.4 87.7002 49.2 87.7002 48.9V11.1C87.7002 10.7 87.9002 10.5 88.3002 10.5C98.1002 10.5 103.7 10.5 105.2 10.5C109.6 10.7 113.4 13.7 115 17.8C116.4 21.4 115.8 24.9 113.3 28.4C112.9 28.7 113 29 113.3 29.3ZM95.5002 17.3L95.4002 26.1C95.4002 26.3 95.6002 26.5 95.8002 26.5L102.9 26.6C105.6 26.6 107.8 24.6 107.8 22.1V21.7C107.8 19.2 105.6 17.1 102.9 17.1L95.8002 17C95.7002 16.9 95.5002 17.1 95.5002 17.3ZM95.5002 33.5V42.4C95.5002 42.6 95.7002 42.7 95.8002 42.7H105C107.7 42.7 110 40.6 110 38V37.9C110 35.3 107.8 33.2 105 33.2H95.8002C95.7002 33.1 95.5002 33.3 95.5002 33.5Z" fill="white"/>
<path d="M122 10.4H128.9C129.2 10.4 129.4 10.6 129.4 10.9V17.8C129.4 18.1 129.2 18.3 128.9 18.3H122C121.7 18.3 121.5 18.1 121.5 17.8V10.9C121.5 10.6 121.7 10.4 122 10.4Z" fill="white"/>
<path d="M207.4 22.7C207.6 22.7 207.7 22.7 207.7 22.6C209.5 19.7 211.8 16.1 214.4 11.8C214.5 11.7 214.7 11.6 214.9 11.6H223.5C223.6 11.6 223.7 11.7 223.7 11.8V11.9C219.2 19.1 215.4 25.2 212.3 30.1C212.2 30.3 212.1 30.4 212.1 30.5C212.1 30.6 212.2 30.8 212.3 30.9C215.4 35.8 219.2 41.9 223.7 49.1C223.8 49.2 223.7 49.3 223.6 49.4H223.5H214.9C214.7 49.4 214.5 49.3 214.4 49.2C211.8 44.9 209.6 41.3 207.7 38.4C207.6 38.3 207.5 38.2 207.4 38.2C207.3 38.2 207.1 38.3 207.1 38.4C205.3 41.3 203 44.9 200.4 49.2C200.3 49.3 200.1 49.4 199.9 49.4H191.3C191.2 49.4 191.1 49.3 191.1 49.2V49.1C195.6 41.9 199.4 35.8 202.4 30.9C202.5 30.7 202.6 30.6 202.6 30.5C202.6 30.4 202.5 30.2 202.4 30.1C199.3 25.2 195.6 19.1 191.1 11.9C191 11.8 191.1 11.7 191.2 11.6H191.3H199.9C200.1 11.6 200.3 11.7 200.4 11.8C203 16.1 205.2 19.7 207.1 22.6C207.2 22.7 207.3 22.7 207.4 22.7Z" fill="white"/>
<path d="M40.3002 13.5C44.7002 16.9 48.7002 20.6 52.0002 24.6L47.3002 29.4L46.8002 29.3C46.5002 29.2 46.2002 29 46.1002 28.8C43.6002 24.7 40.9002 20.8 37.9002 17C37.8002 16.9 37.7002 16.7 37.7002 16.5C37.7002 16.4 37.7002 16.3 37.7002 16.2L40.3002 13.5Z" fill="#F5F5F5"/>
<path d="M121.9 21.5H129C129.2 21.5 129.4 21.7 129.4 21.9V49C129.4 49.2 129.2 49.4 129 49.4H121.9C121.7 49.4 121.5 49.2 121.5 49V21.9C121.5 21.7 121.7 21.5 121.9 21.5Z" fill="white"/>
<path d="M141.9 22.6C147.8 20.3 154.5 21.7 157.1 27.7C157.7 29.1 158 31.2 157.9 34.1C157.9 37.8 157.9 42.8 157.9 49.1C157.9 49.3 157.7 49.5 157.5 49.5H150.2C150 49.5 149.8 49.3 149.8 49.1L149.7 32.7C149.7 30 148.4 28.6 145.7 28.4C145.5 28.4 145.4 28.4 145.4 28.4C142.6 28.5 141.2 29.9 141.2 32.3V49.1C141.2 49.3 141.1 49.4 140.9 49.4H133.6C133.4 49.4 133.3 49.3 133.3 49.1V22C133.3 21.7 133.5 21.5 133.8 21.5H140.3C140.7 21.5 141 21.7 141.1 22L141.2 22.4C141.3 22.6 141.5 22.7 141.9 22.6Z" fill="white"/>
<path d="M187.4 28.9C189.9 34.1 189.5 39.1 186.1 43.9C185.9 44.2 185.9 44.5 186.1 44.8C189.6 49.1 189.9 53.8 186.9 58.7C179.7 70.8 161.7 65.8 161.2 51.9C161.2 51.7 161.3 51.6 161.5 51.6H168.8C168.9 51.6 169 51.7 169.1 51.8C169.9 56.2 172.4 58 176.6 57.4C178.8 57.1 182.6 53.8 180.4 51.3C178.7 49.3 177.1 49.6 174.2 49.3C159.3 48 156.4 28.1 170.2 22.4C171.6 21.8 174.2 21.5 178 21.5C184 21.5 187.5 21.5 188.5 21.6C188.8 21.6 189.1 21.9 189.1 22.2V27.6C189.1 28 188.9 28.2 188.5 28.2H187.7C187.2 28.2 187.1 28.4 187.4 28.9ZM181 35.4C181 32.1 178.4 29.5 175.1 29.5C171.8 29.5 169.2 32.1 169.2 35.4C169.2 38.7 171.8 41.3 175.1 41.3C178.3 41.3 181 38.7 181 35.4Z" fill="white"/>
<path d="M27.7001 29.9L37.4001 43.4L30.9001 49C28.8001 47.3 26.3001 46.3 23.4001 46C23.2001 46 23.1001 45.8 23.1001 45.6C23.1001 45.5 23.1001 45.5 23.2001 45.4C23.8001 44.6 23.7001 43.8 23.0001 43C21.6001 41.3 20.1001 39.7 18.6001 38C22.0001 35.8 25.1001 33.1 27.7001 29.9Z" fill="#F5F5F5"/>
<path d="M18.6 38C20.2 39.7 21.7 41.3 23 43C23.7 43.9 23.8 44.7 23.2 45.4C23.1 45.6 23.1 45.8 23.3 45.9C23.4 45.9 23.4 46 23.5 46C26.3 46.3 28.8 47.3 31 49C22 55.8 12 59.3 0.9 59.3C0.7 59.3 0.5 59.1 0.5 58.9V43.7C0.5 43.3 0.7 43.1 1.1 43.1C7.4 43 13.3 41.2 18.6 38Z" fill="white"/>
</g>
<defs>
<clipPath id="clip0_151_94">
<rect width="224" height="66" fill="white"/>
</clipPath>
</defs>
</svg>
