<?xml version="1.0" encoding="utf-8"?>
<!-- Generator: Adobe Illustrator 23.0.2, SVG Export Plug-In . SVG Version: 6.00 Build 0)  -->
<!DOCTYPE svg PUBLIC "-//W3C//DTD SVG 1.1//EN" "http://www.w3.org/Graphics/SVG/1.1/DTD/svg11.dtd" [
	<!ENTITY ns_extend "http://ns.adobe.com/Extensibility/1.0/">
	<!ENTITY ns_ai "http://ns.adobe.com/AdobeIllustrator/10.0/">
	<!ENTITY ns_graphs "http://ns.adobe.com/Graphs/1.0/">
	<!ENTITY ns_vars "http://ns.adobe.com/Variables/1.0/">
	<!ENTITY ns_imrep "http://ns.adobe.com/ImageReplacement/1.0/">
	<!ENTITY ns_sfw "http://ns.adobe.com/SaveForWeb/1.0/">
	<!ENTITY ns_custom "http://ns.adobe.com/GenericCustomNamespace/1.0/">
	<!ENTITY ns_adobe_xpath "http://ns.adobe.com/XPath/1.0/">
]>
<svg version="1.1" id="Layer_1" xmlns:x="&ns_extend;" xmlns:i="&ns_ai;" xmlns:graph="&ns_graphs;"
	 xmlns="http://www.w3.org/2000/svg" xmlns:xlink="http://www.w3.org/1999/xlink" x="0px" y="0px" width="225px" height="94.2px"
	 viewBox="0 0 225 94.2" style="enable-background:new 0 0 225 94.2;" xml:space="preserve">
<style type="text/css">
	.st0{fill:#F7F7F7;}
	.st1{fill:#E8E8E8;}
	.st2{fill:#FFFFFF;}
	.st3{fill:#FED631;}
</style>
<metadata>
	<sfw  xmlns="&ns_sfw;">
		<slices></slices>
		<sliceSourceBounds  bottomLeftOrigin="true" height="39.8" width="182.6" x="25.7" y="27.1"></sliceSourceBounds>
	</sfw>
</metadata>
<path class="st0" d="M87.5,46.7c0.6-0.7,1.3-1.5,2-2.3c0.5-0.5,0.8-1.5,0.8-2.8c0.1-3.4,0-5.6-0.3-6.6c-1.6-4.9-5.2-7.4-10.6-7.6
	c-3.2-0.1-8.8-0.1-17,0c-1.8,0-2.7,0.9-2.7,2.7v34.7c0,1.5,0.7,2.2,2.2,2.2c3.6,0,9.1,0,16.6,0.1c3,0,5.3-0.4,7-1.3
	c4.6-2.4,5.6-7.3,5.5-12.1c0-2.4-1.2-4.3-3.5-5.6c-0.4-0.3-0.6-0.8-0.3-1.2C87.4,46.8,87.5,46.7,87.5,46.7z M35.5,56.6v-27
	c0-1-0.9-1.8-1.9-1.8l-6.4-0.2c-1,0-1.5,0.5-1.5,1.6v35.5c0,1.2,1,2.1,2.2,2.1h26.6c0.8,0,1.1-0.4,1.1-1.2c-0.2-4.2-0.3-6.4-0.4-6.6
	c-0.4-0.8-0.9-1.4-1.3-1.4l-17.6-0.2C35.9,57.5,35.5,57.1,35.5,56.6z"/>
<path class="st1" d="M137.8,27.8c-1.9-0.1-2.9,0.8-2.9,2.5c0,9.7,0,21.7,0,35.8c0,0.4,0.2,0.7,0.6,0.6l6.8-0.2c1,0,1.8-0.8,1.9-1.7
	c0.4-6.6,0.2-13.7-0.5-21.3c0.4,0.2,0.7,0.4,0.8,0.5c0.2,0.1,0.4,0.4,0.6,0.7c3.5,6.1,7,12.1,10.4,18.2c1.3,2.3,1.7,3.6,4.2,3.7
	c2,0.1,3.9,0,5.5-0.1c1.3-0.1,2-0.9,2-2.2l0.1-35.5c0-1-0.5-1.4-1.4-1.4l-6.4,0.3c-1,0-1.8,0.8-1.8,1.7v19.8c0,1.1-0.3,1.2-0.9,0.2
	c-4.7-8.2-8.6-14.9-11.6-20.2C144,27.1,139.8,27.4,137.8,27.8z M181.4,42.8V30c0-1.2-1-2.2-2.2-2.2l-5.7-0.1c-1.1,0-1.6,0.5-1.6,1.7
	v35.3c0,1,0.8,1.9,1.9,2c0.6,0.1,2.5,0.2,5.8,0.3c1.2,0,1.8-0.5,1.8-1.6V51.7c0-0.4,0.2-0.6,0.6-0.7c1.6-0.3,2.8,0,3.5,0.8
	c2.9,3.5,6.7,8,11.3,13.8c0.7,0.8,1.7,1.3,2.9,1.3h7.7c0.9,0,1.1-0.3,0.6-1l-13.9-17.1c-0.8-1-0.9-2.4-0.1-3.3l13.6-16.6
	c0.7-0.8,0.5-1.3-0.6-1.3c-4.6,0-7.1,0-7.6,0.1c-1.3,0.2-2.3,0.7-2.9,1.4c-6.7,8.3-10.4,12.8-10.9,13.3c-0.6,0.7-1.7,1-3.5,0.9
	C181.5,43.3,181.4,43.1,181.4,42.8z"/>
<path class="st2" d="M102.8,66.6l-8.9,0.1c-0.2,0-0.4-0.2-0.4-0.4v-0.1c3.7-11.7,7.4-23.4,11.1-35.1c0.7-2.1,1.7-3.3,2.9-3.6h9.7
	c1.2,0,2.3,0.8,2.7,2l11.4,36.2c0.2,0.7,0,1.1-0.7,1.1l-7.6-0.1c-0.8,0-1.4-0.5-1.7-1.2l-1.9-6c-0.1-0.3-0.4-0.6-0.7-0.6h-12.3
	c-0.4,0-0.6,0.2-0.7,0.5L102.8,66.6z M107.9,52.1c-0.1,0.2,0,0.4,0.2,0.4h0.1h8.4c0.2,0,0.3-0.1,0.3-0.3v-0.1L112.7,39
	c-0.1-0.2-0.3-0.3-0.4-0.2c-0.1,0-0.2,0.1-0.2,0.2L107.9,52.1z"/>
<path class="st2" d="M35.5,56.6c0,0.5,0.4,0.9,0.9,0.9L54,57.7c0.4,0,0.9,0.6,1.3,1.4c0.1,0.2,0.2,2.4,0.4,6.6
	c0,0.8-0.3,1.2-1.1,1.2H28c-1.2,0-2.2-1-2.2-2.1V29.3c0-1.1,0.5-1.6,1.5-1.6l6.4,0.2c1.1,0,1.9,0.9,1.9,1.8L35.5,56.6z"/>
<path class="st2" d="M143.7,43.6l-0.5,20.6c0,0.7-0.6,1.3-1.4,1.3H137c-0.5,0-0.9-0.4-0.9-0.9V30.5c0-0.3,0.1-0.6,0.3-0.9l1.3-1.8
	c2.1-0.4,6.3-0.7,7.5,1.6c3,5.3,6.8,12,11.6,20.2c0.6,1,0.9,0.9,0.9-0.2V29.6c0-0.9,0.8-1.6,1.8-1.7l6.4-0.3c0.9,0,1.4,0.4,1.4,1.4
	l-0.1,35.5c0,1.3-0.7,2.1-2,2.2c-1.6,0.2-3.4,0.2-5.5,0.1c-2.4-0.1-2.9-1.4-4.2-3.7c-3.4-6.1-6.9-12.2-10.4-18.2
	c-0.2-0.4-0.4-0.6-0.6-0.7C144.3,44,144.1,43.8,143.7,43.6z"/>
<path class="st2" d="M181.9,43.4c1.8,0.1,2.9-0.2,3.5-0.9c0.5-0.6,4.1-5,10.9-13.3c0.6-0.7,1.6-1.2,2.9-1.4c0.4-0.1,3-0.1,7.6-0.1
	c1.1,0,1.3,0.4,0.6,1.3l-13.6,16.6c-0.8,0.9-0.7,2.3,0.1,3.3L207.8,66c0.6,0.7,0.4,1-0.6,1h-7.7c-1.1,0-2.2-0.5-2.9-1.3
	c-4.6-5.7-8.4-10.3-11.3-13.8c-0.7-0.8-1.8-1.1-3.5-0.8c-0.4,0.1-0.6,0.3-0.6,0.7v13.7c0,1.1-0.6,1.7-1.8,1.6
	c-3.3-0.1-5.2-0.2-5.8-0.3c-1.1-0.1-1.9-1-1.9-2V29.5c0-1.1,0.5-1.7,1.6-1.7l5.7,0.1c1.2,0,2.2,1,2.2,2.2v12.8
	C181.4,43.1,181.5,43.3,181.9,43.4z"/>
<path class="st2" d="M137.8,27.8l-1.3,1.8c-0.2,0.3-0.3,0.6-0.3,0.9v34.1c0,0.5,0.4,0.9,0.9,0.9h4.8c0.7,0,1.3-0.6,1.4-1.3l0.5-20.6
	c0.7,7.6,0.9,14.7,0.5,21.3c0,1-0.9,1.7-1.9,1.7l-6.8,0.2c-0.4,0-0.6-0.2-0.6-0.6c-0.1-14.2-0.1-26.1,0-35.8
	C134.8,28.6,135.8,27.7,137.8,27.8z"/>
<path class="st2" d="M91.2,53.7c-0.1-2.4-1.2-4.3-3.5-5.6L87.6,48c-0.4-0.3-0.4-0.9-0.1-1.3c0.6-0.7,1.3-1.5,2.2-2.3
	c0.5-0.5,0.8-1.5,0.8-2.8c0.1-3.4,0-5.6-0.3-6.6c-1.7-4.9-5.2-7.4-10.6-7.6c-3.2-0.1-8.9-0.1-17,0c-1.8,0-2.7,0.9-2.7,2.7v34.7
	c0,1.5,0.7,2.2,2.2,2.2c3.6,0.1,9.1,0.1,16.6,0.1c3,0,5.3-0.4,7-1.3C90.2,63.4,91.3,58.5,91.2,53.7z M86.5,48.3
	c-0.1-0.1-0.2-0.3-0.2-0.4C86.3,48,86.4,48.2,86.5,48.3z M86.3,46.2c0.1-0.1,0.1-0.2,0.2-0.3C86.4,46,86.4,46.1,86.3,46.2z M86.4,31
	c-1.2-1.1-2.8-1.8-4.7-2.1C83.7,29.2,85.2,29.9,86.4,31z M72.2,32.6c0.6-0.3,1.3-0.5,2.2-0.5c0.9,0,1.6,0.2,2.2,0.5
	c4.7,2.6,2.1,6.4,0.2,9.8c-0.7,1.2-1.1,2.9-1.1,4.8s0.4,3.5,1.1,4.8c2,3.4,4.5,7.2-0.1,9.8c-0.6,0.3-1.3,0.5-2.2,0.5
	s-1.6-0.2-2.2-0.5c-4.7-2.6-2.1-6.4-0.2-9.8c0.7-1.2,1.1-2.9,1.1-4.8c-0.1-1.9-0.4-3.5-1.1-4.8C70.1,39,67.6,35.2,72.2,32.6z
	 M61.6,28.9c0,0,0.1-0.1,0.1-0.1C61.6,28.8,61.6,28.8,61.6,28.9z M61.4,28.9c0,0-0.1,0.1-0.1,0.1C61.4,29,61.4,29,61.4,28.9z
	 M61.3,29.2c0,0.1-0.1,0.2-0.1,0.3C61.2,29.4,61.2,29.3,61.3,29.2z M82.1,65.5C82.1,65.5,82.1,65.5,82.1,65.5
	C82.1,65.5,82.1,65.5,82.1,65.5c6.7-0.7,7.5-6.5,7.3-12.6C89.6,59,88.9,64.8,82.1,65.5z"/>
<path class="st3" d="M74.3,32.1c0.9,0,1.6,0.2,2.2,0.5c4.6,2.6,2.1,6.4,0.2,9.8c-0.7,1.3-1.1,2.9-1.1,4.8c0,1.9,0.4,3.6,1.1,4.8
	c1.9,3.4,4.5,7.2-0.1,9.8c-0.6,0.3-1.3,0.5-2.2,0.5c-0.9,0-1.6-0.2-2.2-0.5c-4.6-2.6-2.1-6.4-0.2-9.8c0.7-1.3,1.1-2.9,1.1-4.8
	c0-1.9-0.4-3.6-1.1-4.9c-1.9-3.4-4.5-7.2,0.1-9.8C72.7,32.3,73.5,32.1,74.3,32.1z"/>
</svg>
